<svg width="12" height="12" viewBox="0 0 12 12" fill="none" xmlns="http://www.w3.org/2000/svg">
<g clip-path="url(#clip0_119_90)">
<path fill-rule="evenodd" clip-rule="evenodd" d="M6.16275 3.93225C6.85875 2.991 7.62825 2.25 8.61225 2.25C10.47 2.25 12 4.61475 12.0007 7.43025C12.0007 9.14775 11.2613 10.224 9.933 10.224C8.77575 10.224 8.13675 9.5745 6.99 7.656L6.48975 6.81375L6.40125 6.666C6.2708 6.44552 6.13829 6.22626 6.00375 6.00825L5.12025 7.56825C3.8655 9.762 3.159 10.224 2.178 10.224C0.8145 10.224 0 9.16275 0 7.47975C0 4.791 1.49625 2.25 3.4485 2.25C3.68775 2.25 3.91725 2.27925 4.1415 2.3415C4.374 2.406 4.59975 2.5065 4.82625 2.64675C5.259 2.916 5.69175 3.333 6.16275 3.93225ZM7.29975 5.60025C7.11075 5.29275 6.92925 5.01 6.7545 4.7505L6.75 4.7445C7.38375 3.76575 7.90725 3.279 8.529 3.279C9.82125 3.279 10.8555 5.18175 10.8555 7.51875C10.8555 8.40975 10.563 8.9265 9.95925 8.9265C9.3795 8.9265 9.10275 8.544 8.00175 6.774L7.299 5.60025H7.29975ZM3.6345 3.567C4.17825 3.642 4.67325 4.0425 5.3895 5.06775C4.97622 5.70058 4.56746 6.33635 4.16325 6.975C3.1455 8.5695 2.79375 8.92725 2.2275 8.92725C1.64475 8.92725 1.2975 8.41575 1.2975 7.50225C1.2975 5.55075 2.271 3.55425 3.432 3.55425C3.50025 3.55425 3.56775 3.55875 3.6345 3.56775V3.567Z" fill="#F5FFFD"/>
</g>
<defs>
<clipPath id="clip0_119_90">
<rect width="12" height="12" fill="white"/>
</clipPath>
</defs>
</svg>
